<?xml version="1.0" encoding="UTF-8" standalone="no"?>
<!-- Created with Inkscape (http://www.inkscape.org/) -->

<svg
   width="72"
   height="44"
   viewBox="0 0 19.05 11.641667"
   version="1.1"
   id="svg1"
   inkscape:version="1.3.2 (091e20ef0f, 2023-11-25)"
   sodipodi:docname="redraw.svg"
   inkscape:export-filename="logo-redrawn.png"
   inkscape:export-xdpi="960"
   inkscape:export-ydpi="960"
   xmlns:inkscape="http://www.inkscape.org/namespaces/inkscape"
   xmlns:sodipodi="http://sodipodi.sourceforge.net/DTD/sodipodi-0.dtd"
   xmlns="http://www.w3.org/2000/svg"
   xmlns:svg="http://www.w3.org/2000/svg">
  <sodipodi:namedview
     id="namedview1"
     pagecolor="#ffffff"
     bordercolor="#666666"
     borderopacity="1.0"
     inkscape:showpageshadow="2"
     inkscape:pageopacity="0.0"
     inkscape:pagecheckerboard="0"
     inkscape:deskcolor="#d1d1d1"
     inkscape:document-units="px"
     showgrid="true"
     inkscape:zoom="6.0073017"
     inkscape:cx="34.291602"
     inkscape:cy="5.2436188"
     inkscape:window-width="1710"
     inkscape:window-height="1402"
     inkscape:window-x="1725"
     inkscape:window-y="33"
     inkscape:window-maximized="1"
     inkscape:current-layer="layer2">
    <inkscape:grid
       id="grid1"
       units="px"
       originx="0"
       originy="0"
       spacingx="0.26458333"
       spacingy="0.26458334"
       empcolor="#3f3fff"
       empopacity="0.25098039"
       color="#3f3fff"
       opacity="0.1254902"
       empspacing="10"
       dotted="false"
       gridanglex="30"
       gridanglez="30"
       visible="true" />
  </sodipodi:namedview>
  <defs
     id="defs1">
    <inkscape:path-effect
       effect="powermask"
       id="path-effect67"
       is_visible="true"
       lpeversion="1"
       uri="#mask-powermask-path-effect67"
       invert="false"
       hide_mask="false"
       background="true"
       background_color="#ffffffff" />
    <filter
       id="mask-powermask-path-effect67_inverse"
       inkscape:label="filtermask-powermask-path-effect67"
       style="color-interpolation-filters:sRGB"
       height="100"
       width="100"
       x="-50"
       y="-50">
      <feColorMatrix
         id="mask-powermask-path-effect67_primitive1"
         values="1"
         type="saturate"
         result="fbSourceGraphic" />
      <feColorMatrix
         id="mask-powermask-path-effect67_primitive2"
         values="-1 0 0 0 1 0 -1 0 0 1 0 0 -1 0 1 0 0 0 1 0 "
         in="fbSourceGraphic" />
    </filter>
  </defs>
  <g
     inkscape:groupmode="layer"
     id="layer2"
     inkscape:label="BG"
     style="display:none">
    <rect
       style="font-variation-settings:'wght' 500;fill:#808080;fill-opacity:1;stroke:none;stroke-width:0.499999;stroke-linejoin:bevel;stroke-dasharray:none;stroke-opacity:1"
       id="rect18"
       width="19.050001"
       height="11.641667"
       x="0"
       y="0" />
  </g>
  <g
     inkscape:label="Original"
     inkscape:groupmode="layer"
     id="layer1"
     style="display:inline">
    <g
       id="g18">
      <ellipse
         style="font-variation-settings:'wght' 500;fill:#008cb6;fill-opacity:1;stroke:none;stroke-width:0.370418;stroke-linejoin:bevel"
         id="path1"
         cx="3.4395833"
         cy="7.4083338"
         rx="3.4395833"
         ry="3.4395835" />
      <circle
         style="font-variation-settings:'wght' 500;fill:#008cb6;fill-opacity:1;stroke:none;stroke-width:0.370418;stroke-linejoin:bevel"
         id="ellipse1"
         cx="7.1437497"
         cy="3.7041667"
         r="3.7041667" />
      <circle
         style="font-variation-settings:'wght' 500;fill:#008cb6;fill-opacity:1;stroke:none;stroke-width:0.370418;stroke-linejoin:bevel"
         id="circle1"
         cx="16.139584"
         cy="7.9375005"
         r="2.9104166" />
      <circle
         style="font-variation-settings:'wght' 500;fill:#008cb6;fill-opacity:1;stroke:none;stroke-width:0.370418;stroke-linejoin:bevel"
         id="circle2"
         cx="12.964582"
         cy="4.7624998"
         r="2.9104166" />
      <rect
         style="font-variation-settings:'wght' 500;fill:#008cb6;fill-opacity:1;stroke:none;stroke-width:0.370417;stroke-linejoin:bevel"
         id="rect2"
         width="12.7"
         height="5.5562501"
         x="3.4395833"
         y="5.2916665" />
    </g>
    <path
       style="font-variation-settings:'wght' 500;fill:#e98a54;fill-opacity:1;stroke:#ffffff;stroke-width:1;stroke-linejoin:bevel;stroke-dasharray:none;stroke-opacity:1"
       d="m 7.1437497,2.9104168 2.3812504,6.35"
       id="path13"
       sodipodi:nodetypes="cc" />
    <path
       style="font-variation-settings:'wght' 500;fill:#e98a54;fill-opacity:1;stroke:#ffffff;stroke-width:1;stroke-linejoin:bevel;stroke-dasharray:none;stroke-opacity:1"
       d="M 13.229166,4.2333335 9.5250001,9.2604168"
       id="path14"
       sodipodi:nodetypes="cc" />
    <path
       style="font-variation-settings:'wght' 500;fill:#e98a54;fill-opacity:1;stroke:#ffffff;stroke-width:1;stroke-linejoin:bevel;stroke-dasharray:none;stroke-opacity:1"
       d="M 16.668749,7.9375004 9.5250001,9.2604168"
       id="path15"
       sodipodi:nodetypes="cc" />
    <path
       style="font-variation-settings:'wght' 500;fill:none;fill-opacity:1;stroke:#e98a54;stroke-width:0.5;stroke-linejoin:bevel;stroke-dasharray:none;stroke-opacity:1"
       d="m 7.1437497,2.9104168 2.3812504,6.35"
       id="path16"
       sodipodi:nodetypes="cc" />
    <path
       style="font-variation-settings:'wght' 500;fill:none;fill-opacity:1;stroke:#e98a54;stroke-width:0.5;stroke-linejoin:bevel;stroke-dasharray:none;stroke-opacity:1"
       d="M 13.229166,4.2333335 9.5250001,9.2604168"
       id="path17"
       sodipodi:nodetypes="cc" />
    <path
       style="font-variation-settings:'wght' 500;fill:none;fill-opacity:1;stroke:#e98a54;stroke-width:0.5;stroke-linejoin:bevel;stroke-dasharray:none;stroke-opacity:1"
       d="M 16.668749,7.9375004 9.5250001,9.2604168"
       id="path18"
       sodipodi:nodetypes="cc" />
    <path
       style="font-variation-settings:'wght' 500;fill:#e98a54;fill-opacity:1;stroke:#ffffff;stroke-width:1;stroke-linejoin:bevel;stroke-dasharray:none;stroke-opacity:1"
       d="M 3.175,7.4083334 9.5250001,9.2604168"
       id="path11"
       sodipodi:nodetypes="cc" />
    <path
       style="font-variation-settings:'wght' 500;fill:none;fill-opacity:1;stroke:#e98a54;stroke-width:0.5;stroke-linejoin:bevel;stroke-dasharray:none;stroke-opacity:1"
       d="M 3.175,7.4083334 9.5250001,9.2604168"
       id="path12"
       sodipodi:nodetypes="cc" />
    <g
       id="g7">
      <circle
         style="font-variation-settings:'wght' 500;fill:#ffffff;fill-opacity:1;stroke:none;stroke-width:0.370416;stroke-linejoin:bevel"
         id="circle4"
         cx="3.1749997"
         cy="7.4083338"
         r="1.8520833" />
      <circle
         style="font-variation-settings:'wght' 500;fill:#e98a54;fill-opacity:1;stroke:none;stroke-width:0.370417;stroke-linejoin:bevel"
         id="path2"
         cx="3.175"
         cy="7.4083338"
         r="1.5875" />
    </g>
    <g
       id="g8"
       transform="translate(0.26458309)">
      <circle
         style="font-variation-settings:'wght' 500;fill:#ffffff;fill-opacity:1;stroke:none;stroke-width:0.370416;stroke-linejoin:bevel"
         id="circle5"
         cx="6.8791666"
         cy="2.9104166"
         r="1.5875" />
      <circle
         style="font-variation-settings:'wght' 500;fill:#e98a54;fill-opacity:1;stroke:none;stroke-width:0.370417;stroke-linejoin:bevel"
         id="ellipse2"
         cx="6.8791666"
         cy="2.9104168"
         r="1.3229167" />
    </g>
    <g
       id="g9">
      <circle
         style="font-variation-settings:'wght' 500;fill:#ffffff;fill-opacity:1;stroke:none;stroke-width:0.370416;stroke-linejoin:bevel"
         id="circle6"
         cx="13.229166"
         cy="4.2333336"
         r="1.3229167" />
      <circle
         style="font-variation-settings:'wght' 500;fill:#e98a54;fill-opacity:1;stroke:none;stroke-width:0.370417;stroke-linejoin:bevel"
         id="ellipse3"
         cx="13.229166"
         cy="4.2333336"
         r="1.0583334" />
    </g>
    <g
       id="g10">
      <circle
         style="font-variation-settings:'wght' 500;fill:#ffffff;fill-opacity:1;stroke:none;stroke-width:0.370416;stroke-linejoin:bevel"
         id="circle7"
         cx="16.668749"
         cy="7.9375005"
         r="1.3229167" />
      <circle
         style="font-variation-settings:'wght' 500;fill:#e98a54;fill-opacity:1;stroke:none;stroke-width:0.370417;stroke-linejoin:bevel"
         id="circle3"
         cx="16.668749"
         cy="7.9375005"
         r="1.0583334" />
    </g>
    <g
       id="g11"
       transform="translate(-0.79374979,-0.7937495)">
      <circle
         style="font-variation-settings:'wght' 500;fill:#ffffff;fill-opacity:1;stroke:none;stroke-width:0.370416;stroke-linejoin:bevel"
         id="circle10"
         cx="10.318749"
         cy="10.054167"
         r="2.3812499" />
      <circle
         style="font-variation-settings:'wght' 500;fill:#e98a54;fill-opacity:1;stroke:none;stroke-width:0.370418;stroke-linejoin:bevel"
         id="circle11"
         cx="10.31875"
         cy="10.054168"
         r="2.1166668" />
    </g>
  </g>
  <g
     inkscape:label="2 color"
     inkscape:groupmode="layer"
     id="g37"
     style="display:none">
    <ellipse
       style="font-variation-settings:'wght' 500;fill:#000000;fill-opacity:1;stroke:none;stroke-width:0.370418;stroke-linejoin:bevel"
       id="ellipse18"
       cx="3.4395833"
       cy="7.4083338"
       rx="3.4395833"
       ry="3.4395835" />
    <circle
       style="font-variation-settings:'wght' 500;fill:#000000;fill-opacity:1;stroke:none;stroke-width:0.370418;stroke-linejoin:bevel"
       id="circle18"
       cx="7.1437497"
       cy="3.7041667"
       r="3.7041667" />
    <circle
       style="font-variation-settings:'wght' 500;fill:#000000;fill-opacity:1;stroke:none;stroke-width:0.370418;stroke-linejoin:bevel"
       id="circle19"
       cx="16.139584"
       cy="7.9375005"
       r="2.9104166" />
    <circle
       style="font-variation-settings:'wght' 500;fill:#000000;fill-opacity:1;stroke:none;stroke-width:0.370418;stroke-linejoin:bevel"
       id="circle20"
       cx="12.964582"
       cy="4.7624998"
       r="2.9104166" />
    <rect
       style="font-variation-settings:'wght' 500;fill:#000000;fill-opacity:1;stroke:none;stroke-width:0.370417;stroke-linejoin:bevel"
       id="rect20"
       width="12.7"
       height="5.5562501"
       x="3.4395833"
       y="5.2916665" />
    <path
       style="font-variation-settings:'wght' 500;fill:#ffffff;fill-opacity:1;stroke:#e9e9e9;stroke-width:0.5;stroke-linejoin:bevel;stroke-dasharray:none;stroke-opacity:1"
       d="m 7.1437497,2.9104168 2.3812504,6.35"
       id="path23"
       sodipodi:nodetypes="cc" />
    <path
       style="font-variation-settings:'wght' 500;fill:#ffffff;fill-opacity:1;stroke:#e9e9e9;stroke-width:0.5;stroke-linejoin:bevel;stroke-dasharray:none;stroke-opacity:1"
       d="M 13.229166,4.2333335 9.5250001,9.2604168"
       id="path24"
       sodipodi:nodetypes="cc" />
    <path
       style="font-variation-settings:'wght' 500;fill:#ffffff;fill-opacity:1;stroke:#e9e9e9;stroke-width:0.5;stroke-linejoin:bevel;stroke-dasharray:none;stroke-opacity:1"
       d="M 16.668749,7.9375004 9.5250001,9.2604168"
       id="path25"
       sodipodi:nodetypes="cc" />
    <path
       style="font-variation-settings:'wght' 500;fill:#ffffff;fill-opacity:1;stroke:#e9e9e9;stroke-width:0.5;stroke-linejoin:bevel;stroke-dasharray:none;stroke-opacity:1"
       d="M 3.175,7.4083334 9.5250001,9.2604168"
       id="path27"
       sodipodi:nodetypes="cc" />
    <circle
       style="font-variation-settings:'wght' 500;fill:#000000;fill-opacity:1;stroke:none;stroke-width:0.370416;stroke-linejoin:bevel"
       id="circle27"
       cx="3.1749997"
       cy="7.4083338"
       r="1.8520833" />
    <circle
       style="font-variation-settings:'wght' 500;fill:#ffffff;fill-opacity:1;stroke:none;stroke-width:0.370417;stroke-linejoin:bevel"
       id="circle28"
       cx="3.175"
       cy="7.4083338"
       r="1.5875" />
    <circle
       style="font-variation-settings:'wght' 500;fill:#000000;fill-opacity:1;stroke:none;stroke-width:0.370416;stroke-linejoin:bevel"
       id="circle29"
       cx="7.1437497"
       cy="2.9104168"
       r="1.5875" />
    <circle
       style="font-variation-settings:'wght' 500;fill:#ffffff;fill-opacity:1;stroke:none;stroke-width:0.370417;stroke-linejoin:bevel"
       id="circle30"
       cx="7.1437497"
       cy="2.9104168"
       r="1.3229167" />
    <circle
       style="font-variation-settings:'wght' 500;fill:#000000;fill-opacity:1;stroke:none;stroke-width:0.370416;stroke-linejoin:bevel"
       id="circle31"
       cx="13.229166"
       cy="4.2333336"
       r="1.3229167" />
    <circle
       style="font-variation-settings:'wght' 500;fill:#ffffff;fill-opacity:1;stroke:none;stroke-width:0.370417;stroke-linejoin:bevel"
       id="circle32"
       cx="13.229166"
       cy="4.2333336"
       r="1.0583334" />
    <circle
       style="font-variation-settings:'wght' 500;fill:#000000;fill-opacity:1;stroke:none;stroke-width:0.370416;stroke-linejoin:bevel"
       id="circle33"
       cx="16.668749"
       cy="7.9375005"
       r="1.3229167" />
    <circle
       style="font-variation-settings:'wght' 500;fill:#ffffff;fill-opacity:1;stroke:none;stroke-width:0.370417;stroke-linejoin:bevel"
       id="circle34"
       cx="16.668749"
       cy="7.9375005"
       r="1.0583334" />
    <circle
       style="font-variation-settings:'wght' 500;fill:#000000;fill-opacity:1;stroke:none;stroke-width:0.370416;stroke-linejoin:bevel"
       id="circle35"
       cx="9.5249996"
       cy="9.260417"
       r="2.3812499" />
    <circle
       style="font-variation-settings:'wght' 500;fill:#ffffff;fill-opacity:1;stroke:none;stroke-width:0.370418;stroke-linejoin:bevel"
       id="circle36"
       cx="9.5250006"
       cy="9.2604179"
       r="2.1166668" />
  </g>
  <g
     inkscape:label="2 color copy"
     inkscape:groupmode="layer"
     id="g51"
     style="display:none">
    <path
       id="rect39"
       style="font-variation-settings:'wght' 500;stroke-width:0.370417;stroke-linejoin:bevel"
       d="M 7.1437501,0 C 5.0979953,0 3.4395834,1.6584119 3.4395834,3.7041667 c 0.00559,0.088827 0.014382,0.1774233 0.026355,0.2656169 -0.00878,-3.782e-4 -0.017569,-7.227e-4 -0.026355,-0.00103 C 1.539954,3.96875 1.1045694e-7,5.5087039 0,7.4083334 -5.5228475e-8,9.307963 1.5399539,10.847917 3.4395834,10.847917 h 4.3279012 c 0.4476986,0.500578 1.0859586,0.788837 1.7575155,0.79375 0.6715569,-0.0049 1.3098169,-0.293171 1.7575159,-0.79375 h 4.857068 c 1.607379,0 2.910416,-1.3030383 2.910416,-2.9104169 0,-1.6073785 -1.303037,-2.9104164 -2.910416,-2.9104167 -0.0999,0.00606 -0.199426,0.017274 -0.298173,0.03359 0.01632,-0.098747 0.02753,-0.1982706 0.03359,-0.298173 0,-1.6073785 -1.303037,-2.9104164 -2.910416,-2.9104167 -0.852133,0.00351 -1.659919,0.3803052 -2.210202,1.0309448 C 10.371126,1.1971694 8.872624,6.4105856e-4 7.1437501,0 Z m 9.73e-5,1.5875 c 0.052169,1.933e-4 0.104281,0.00347 0.1560628,0.00982 0.012431,0.00189 0.024835,0.00396 0.037207,0.0062 0.037478,0.00512 0.074719,0.011843 0.1116211,0.020154 0.023434,0.00608 0.046698,0.012799 0.069763,0.020154 0.025554,0.00716 0.050887,0.015087 0.075964,0.023771 0.02476,0.00943 0.049231,0.019594 0.07338,0.030489 0.022846,0.00953 0.04542,0.019695 0.067696,0.030489 0.021679,0.011121 0.043047,0.022839 0.064079,0.03514 0.024934,0.014017 0.049407,0.028839 0.07338,0.044442 0.019305,0.013104 0.038259,0.026717 0.056844,0.040824 0.021505,0.015726 0.042529,0.032098 0.063045,0.049093 0.019612,0.016494 0.03874,0.033555 0.057361,0.05116 0.01879,0.01772 0.037057,0.035987 0.054777,0.054777 0.017605,0.018621 0.034666,0.037749 0.05116,0.057361 0.016995,0.020516 0.033367,0.04154 0.049093,0.063045 0.014107,0.018585 0.02772,0.037539 0.040824,0.056844 0.015603,0.023973 0.030425,0.048447 0.044442,0.073381 0.012301,0.021032 0.024019,0.0424 0.03514,0.064079 0.010794,0.022276 0.020961,0.04485 0.030489,0.067696 0.010896,0.024149 0.021063,0.04862 0.030489,0.07338 0.00868,0.025077 0.016611,0.05041 0.023771,0.075964 0.00736,0.023065 0.014076,0.046329 0.020154,0.069763 0.00831,0.036902 0.015035,0.074143 0.020154,0.111621 0.00224,0.012372 0.00431,0.024776 0.0062,0.037207 0.00635,0.051782 0.00963,0.1038937 0.00982,0.1560628 -5.157e-4,0.1347036 -0.021602,0.2685383 -0.062529,0.396875 -0.00185,0.00639 -0.00374,0.012761 -0.00568,0.01912 -0.041628,0.124445 -0.1015394,0.242004 -0.177767,0.3488159 -0.00526,0.00746 -0.010603,0.014869 -0.01602,0.022221 -0.077363,0.1042379 -0.1696471,0.1965219 -0.2738851,0.2738851 -0.00735,0.00542 -0.014759,0.010757 -0.022221,0.01602 -0.1068119,0.076228 -0.2243709,0.1361391 -0.3488159,0.1777669 -0.00636,0.00194 -0.012732,0.00383 -0.01912,0.00568 -0.1283367,0.040927 -0.2621714,0.062013 -0.396875,0.062528 -0.730626,1.6e-6 -1.322917,-0.592286 -1.3229196,-1.322912 0,-0.7306267 0.59229,-1.3229167 1.3229167,-1.3229167 z M 13.229167,3.175 c 0.04511,2.223e-4 0.09016,0.00333 0.134875,0.0093 0.01071,0.00173 0.02139,0.00362 0.03204,0.00568 0.03232,0.00489 0.06439,0.011266 0.09612,0.01912 0.01771,0.00488 0.03528,0.010223 0.05271,0.01602 0.02528,0.0075 0.05028,0.01595 0.07493,0.025321 0.01867,0.00791 0.03711,0.016354 0.05529,0.025322 0.021,0.00949 0.04168,0.019654 0.06201,0.030489 0.02056,0.011553 0.04072,0.02379 0.06046,0.03669 0.0172,0.01071 0.03409,0.021911 0.05064,0.03359 0.01818,0.013381 0.03594,0.027341 0.05323,0.041858 0.01862,0.015226 0.03672,0.031083 0.05426,0.047542 0.01398,0.013234 0.02759,0.026847 0.04082,0.040824 0.01646,0.017541 0.03232,0.035638 0.04754,0.05426 0.01452,0.017291 0.02848,0.035043 0.04186,0.053227 0.01168,0.016556 0.02288,0.033444 0.03359,0.050643 0.0129,0.01974 0.02514,0.039905 0.03669,0.060462 0.01084,0.020333 0.021,0.041015 0.03049,0.062012 0.009,0.018185 0.01741,0.036624 0.02532,0.055294 0.0094,0.024653 0.01782,0.049647 0.02532,0.074931 0.0058,0.017428 0.01114,0.035004 0.01602,0.05271 0.0079,0.031727 0.01423,0.063801 0.01912,0.096118 0.0021,0.01065 0.004,0.021331 0.0057,0.032039 0.006,0.044714 0.0091,0.089765 0.0093,0.1348755 -3.81e-4,0.1366674 -0.02723,0.2719673 -0.07906,0.3984253 -0.0022,0.00484 -0.0044,0.00966 -0.0067,0.014469 -0.05188,0.121966 -0.126201,0.2331025 -0.219108,0.3276286 -0.0043,0.00434 -0.0086,0.00865 -0.01292,0.012919 -0.09453,0.092907 -0.205662,0.1672316 -0.327628,0.2191081 -0.0048,0.00228 -0.0096,0.00452 -0.01447,0.00672 -0.126458,0.051833 -0.261757,0.078683 -0.398425,0.079065 -0.126939,-0.00221 -0.252445,-0.02724 -0.37052,-0.073897 -0.0352,-0.015516 -0.06953,-0.032939 -0.102836,-0.052193 -0.07926,-0.03968 -0.153218,-0.08916 -0.220142,-0.1472778 -0.03233,-0.028595 -0.06287,-0.059141 -0.09147,-0.091467 -0.05812,-0.066924 -0.107598,-0.1408833 -0.147278,-0.2201416 -0.01925,-0.033305 -0.03667,-0.067634 -0.05219,-0.1028361 -0.04666,-0.1180744 -0.07169,-0.2435805 -0.0739,-0.37052 0.0022,-0.1269395 0.02724,-0.2524456 0.0739,-0.37052 0.01552,-0.035202 0.03294,-0.069531 0.05219,-0.1028361 0.03968,-0.079258 0.08916,-0.1532179 0.147278,-0.2201416 0.0286,-0.032326 0.05914,-0.062872 0.09147,-0.091467 0.06692,-0.058117 0.140884,-0.1075975 0.220142,-0.1472779 0.03331,-0.019254 0.06763,-0.036677 0.102836,-0.052193 C 12.976738,3.2022412 13.102236,3.177211 13.229167,3.175 Z M 7.9717038,4.2483196 8.8496861,6.9897543 C 8.6894278,7.0369348 8.5344824,7.1008487 8.3876018,7.1804404 L 7.51075,4.4400391 C 7.6735511,4.4008438 7.8291257,4.3361373 7.9717038,4.2483196 Z m 4.2947312,0.8702311 c 0.11405,0.1231419 0.250491,0.2234559 0.402043,0.2955892 L 11.13007,7.5023845 C 11.006591,7.3901967 10.871663,7.2912961 10.727511,7.2073121 Z M 3.175,5.8208334 c 0.053677,3.79e-5 0.1073168,0.0028 0.1607138,0.00827 0.018827,0.00259 0.037605,0.00552 0.056327,0.00878 0.034272,0.00423 0.068396,0.00957 0.1023193,0.01602 0.021987,0.00487 0.043869,0.010215 0.065629,0.01602 0.030729,0.00736 0.061232,0.015628 0.091467,0.024805 0.020298,0.00683 0.040456,0.014062 0.060461,0.021704 0.031371,0.01091 0.062393,0.022801 0.093018,0.035657 0.018426,0.00843 0.036688,0.017221 0.054777,0.026355 0.029736,0.013902 0.059033,0.028723 0.08785,0.044442 0.020066,0.011452 0.039881,0.02334 0.059428,0.035657 0.026319,0.015954 0.052168,0.03267 0.077515,0.050126 0.018903,0.013372 0.03751,0.027155 0.05581,0.041341 0.02378,0.018115 0.047044,0.036898 0.069763,0.056327 0.019903,0.017255 0.039374,0.035003 0.058394,0.053227 0.018883,0.017974 0.037319,0.036411 0.055294,0.055294 0.018224,0.01902 0.035972,0.038491 0.053227,0.058394 0.019429,0.022719 0.038212,0.045983 0.056327,0.069763 0.014186,0.0183 0.027969,0.036907 0.041341,0.05581 0.017457,0.025347 0.034172,0.051196 0.050126,0.077515 0.012317,0.019547 0.024205,0.039362 0.035657,0.059428 0.015719,0.028817 0.03054,0.058114 0.044442,0.08785 0.00913,0.018089 0.01792,0.036351 0.026355,0.054777 0.012856,0.030625 0.024747,0.061647 0.035657,0.093018 0.00764,0.020005 0.014878,0.040163 0.021704,0.060461 0.00918,0.030235 0.017449,0.060738 0.024805,0.091467 0.0058,0.02176 0.011146,0.043642 0.01602,0.065629 0.00645,0.033923 0.011794,0.068048 0.01602,0.1023193 0.00327,0.018722 0.0062,0.0375 0.00879,0.056327 0.00547,0.053397 0.00823,0.1070371 0.00827,0.1607137 -6.259e-4,0.1337909 -0.018163,0.2669661 -0.052193,0.3963583 -0.0025,0.00933 -0.00508,0.018627 -0.00775,0.027905 -0.035209,0.1291174 -0.086604,0.2532643 -0.1529622,0.3694865 -0.067557,0.1158117 -0.1495141,0.2225985 -0.2439128,0.31781 -0.00632,0.00643 -0.012692,0.012801 -0.01912,0.01912 C 4.1913571,8.6334092 4.0845708,8.7153656 3.9687591,8.782923 3.8525369,8.849281 3.72839,8.9006762 3.5992726,8.9358852 c -0.00928,0.00267 -0.01858,0.00525 -0.027905,0.00775 C 3.4419726,8.9776682 3.3087943,8.9952067 3.175,8.9958335 3.0214499,8.9940818 2.8689664,8.9700604 2.7223145,8.92452 2.6749137,8.9074524 2.6283522,8.888138 2.5827881,8.8666424 2.4862449,8.8287604 2.3936461,8.7815091 2.3063192,8.7255657 2.2591698,8.6932426 2.2138007,8.6583964 2.1704102,8.6211793 2.0946882,8.5583639 2.0249696,8.4886453 1.9621542,8.4129233 1.9249371,8.3695328 1.8900909,8.3241637 1.8577678,8.2770143 1.8018244,8.1896874 1.7545731,8.0970886 1.7166911,8.0005454 1.6951955,7.9549813 1.6758811,7.9084198 1.6588135,7.861019 1.6132731,7.7143671 1.5892517,7.5618835 1.5875,7.4083334 1.58925,7.2547833 1.613273,7.1022998 1.658814,6.9556479 1.675882,6.9082469 1.695196,6.8616859 1.716692,6.8161215 1.754574,6.7195785 1.801825,6.6269795 1.8577687,6.5396526 c 0.032323,-0.047149 0.067169,-0.092518 0.1043864,-0.135909 0.062815,-0.075722 0.132534,-0.1454406 0.208256,-0.208256 0.043391,-0.037217 0.08876,-0.072063 0.135909,-0.1043864 C 2.3936471,6.0351582 2.4862458,5.9879065 2.582789,5.9500245 2.628353,5.9285285 2.674915,5.9092145 2.7223154,5.8921465 2.8689664,5.8466065 3.0214499,5.8225851 3.175,5.8208334 Z m 13.49375,1.0583334 c 0.136668,3.823e-4 0.271968,0.027232 0.398426,0.079065 0.0048,0.0022 0.0097,0.00444 0.01447,0.00672 0.121966,0.051876 0.233103,0.1262011 0.327629,0.2191081 0.0043,0.00427 0.0087,0.00858 0.01292,0.012919 0.09291,0.094526 0.167232,0.2056626 0.219108,0.3276286 0.0023,0.00481 0.0045,0.00963 0.0067,0.014469 0.05183,0.126458 0.07868,0.2617579 0.07906,0.3984253 -3.81e-4,0.1366674 -0.02723,0.2719673 -0.07906,0.3984253 -0.0022,0.00484 -0.0044,0.00966 -0.0067,0.014469 -0.05188,0.121966 -0.126201,0.2331025 -0.219108,0.3276286 -0.0043,0.00434 -0.0086,0.00865 -0.01292,0.012919 -0.09453,0.092907 -0.205663,0.1672317 -0.327629,0.2191081 -0.0048,0.00228 -0.0096,0.00452 -0.01447,0.00672 -0.126458,0.051833 -0.261758,0.078683 -0.398426,0.079065 -0.126939,-0.00221 -0.252445,-0.02724 -0.37052,-0.073897 -0.0352,-0.015516 -0.06953,-0.032939 -0.102836,-0.052193 -0.07926,-0.03968 -0.153218,-0.089161 -0.220141,-0.1472779 -0.03233,-0.028595 -0.06287,-0.059141 -0.09147,-0.091467 -0.05812,-0.066924 -0.107598,-0.1408833 -0.147278,-0.2201416 -0.01925,-0.033305 -0.03667,-0.067634 -0.05219,-0.1028361 -0.04666,-0.1180744 -0.07169,-0.2435805 -0.0739,-0.37052 0.0022,-0.1269395 0.02724,-0.2524456 0.0739,-0.37052 0.01552,-0.035202 0.03294,-0.069531 0.05219,-0.1028361 0.03968,-0.079258 0.08916,-0.1532179 0.147278,-0.2201416 0.0286,-0.032326 0.05914,-0.062872 0.09147,-0.091467 0.06692,-0.058117 0.140883,-0.1075974 0.220141,-0.1472778 0.0333,-0.019254 0.06763,-0.036677 0.102836,-0.052193 0.118075,-0.046657 0.243581,-0.071688 0.37052,-0.073897 z M 9.5250001,7.1437501 c 0.1849667,7.84e-5 0.3691253,0.024401 0.5477699,0.072347 0.178692,0.047839 0.350342,0.1188969 0.510563,0.2113566 0.160142,0.092512 0.307469,0.2056128 0.438217,0.3364136 0.130801,0.1307478 0.243901,0.2780745 0.336413,0.4382162 0.09246,0.1602208 0.163518,0.3318708 0.211357,0.5105631 0.04795,0.1786446 0.07227,0.3628032 0.07235,0.5477702 -7.9e-5,0.184967 -0.0244,0.3691256 -0.07235,0.5477702 -0.04784,0.1786922 -0.118897,0.350342 -0.211357,0.510563 -0.09251,0.160142 -0.205612,0.307468 -0.336413,0.438216 -0.130748,0.130801 -0.278075,0.243902 -0.438217,0.336414 -0.160221,0.09246 -0.331871,0.163517 -0.510563,0.211356 -0.1786446,0.04795 -0.3628032,0.07227 -0.5477699,0.07235 -1.1690025,0 -2.1166664,-0.947664 -2.1166667,-2.1166662 1e-7,-1.1690027 0.947664,-2.1166666 2.1166667,-2.1166667 z M 4.9919434,7.6775677 7.3334026,8.3596966 C 7.2692598,8.5144489 7.221626,8.6755378 7.1912924,8.8402874 L 4.8519003,8.1581585 C 4.9201149,8.0050372 4.9672262,7.843364 4.9919434,7.6775677 Z M 15.347384,7.9276816 c -5.12e-4,0.00327 -10e-4,0.00654 -0.0015,0.00982 0.0035,0.1651147 0.03782,0.3281204 0.101285,0.4805908 l -3.54862,0.6568075 C 11.88488,8.9082744 11.853702,8.7435517 11.805529,8.583457 Z"
       sodipodi:nodetypes="ccccsscccsscccccccccccccccccccccccccccccccccccccccccccccccccccccccccccccccccccccsccccccccccccccccccccccccccccccccccccccccccccccccccccccccccccccccccccccccccccccccccccccccsccccccsccccccccccccccccccccccccccccccccscccccccccccc" />
    <g
       id="g61"
       mask="none">
      <g
         id="path39" />
      <g
         id="path40" />
      <g
         id="path41" />
      <g
         id="path42" />
    </g>
    <g
       id="g67"
       style="stroke-width:0.999999" />
  </g>
</svg>
