<svg xmlns="http://www.w3.org/2000/svg" width="260" height="44" viewBox="0 0 68.792 11.642"><g style="display:inline"><circle cx="3.44" cy="7.408" r="3.44" style="font-variation-settings:&quot;wght&quot;500;fill:#008cb6;fill-opacity:1;stroke:none;stroke-width:.370418;stroke-linejoin:bevel"/><circle cx="7.144" cy="3.704" r="3.704" style="font-variation-settings:&quot;wght&quot;500;fill:#008cb6;fill-opacity:1;stroke:none;stroke-width:.370418;stroke-linejoin:bevel"/><circle cx="16.14" cy="7.938" r="2.91" style="font-variation-settings:&quot;wght&quot;500;fill:#008cb6;fill-opacity:1;stroke:none;stroke-width:.370418;stroke-linejoin:bevel"/><circle cx="12.965" cy="4.762" r="2.91" style="font-variation-settings:&quot;wght&quot;500;fill:#008cb6;fill-opacity:1;stroke:none;stroke-width:.370418;stroke-linejoin:bevel"/><path d="M3.44 5.292h12.7v5.556H3.44z" style="font-variation-settings:&quot;wght&quot;500;fill:#008cb6;fill-opacity:1;stroke:none;stroke-width:.370417;stroke-linejoin:bevel"/><path d="m7.144 2.91 2.381 6.35M13.23 4.233 9.524 9.26M16.669 7.938 9.525 9.26" style="font-variation-settings:&quot;wght&quot;500;fill:#e98a54;fill-opacity:1;stroke:#fff;stroke-width:1;stroke-linejoin:bevel;stroke-dasharray:none;stroke-opacity:1"/><path d="m7.144 2.91 2.381 6.35M13.23 4.233 9.524 9.26M16.669 7.938 9.525 9.26" style="font-variation-settings:&quot;wght&quot;500;fill:none;fill-opacity:1;stroke:#e98a54;stroke-width:.5;stroke-linejoin:bevel;stroke-dasharray:none;stroke-opacity:1"/><path d="m3.175 7.408 6.35 1.852" style="font-variation-settings:&quot;wght&quot;500;fill:#e98a54;fill-opacity:1;stroke:#fff;stroke-width:1;stroke-linejoin:bevel;stroke-dasharray:none;stroke-opacity:1"/><path d="m3.175 7.408 6.35 1.852" style="font-variation-settings:&quot;wght&quot;500;fill:none;fill-opacity:1;stroke:#e98a54;stroke-width:.5;stroke-linejoin:bevel;stroke-dasharray:none;stroke-opacity:1"/><circle cx="3.175" cy="7.408" r="1.852" style="font-variation-settings:&quot;wght&quot;500;fill:#fff;fill-opacity:1;stroke:none;stroke-width:.370416;stroke-linejoin:bevel"/><circle cx="3.175" cy="7.408" r="1.587" style="font-variation-settings:&quot;wght&quot;500;fill:#e98a54;fill-opacity:1;stroke:none;stroke-width:.370417;stroke-linejoin:bevel"/><g transform="translate(.265)"><circle cx="6.879" cy="2.91" r="1.587" style="font-variation-settings:&quot;wght&quot;500;fill:#fff;fill-opacity:1;stroke:none;stroke-width:.370416;stroke-linejoin:bevel"/><circle cx="6.879" cy="2.91" r="1.323" style="font-variation-settings:&quot;wght&quot;500;fill:#e98a54;fill-opacity:1;stroke:none;stroke-width:.370417;stroke-linejoin:bevel"/></g><circle cx="13.229" cy="4.233" r="1.323" style="font-variation-settings:&quot;wght&quot;500;fill:#fff;fill-opacity:1;stroke:none;stroke-width:.370416;stroke-linejoin:bevel"/><circle cx="13.229" cy="4.233" r="1.058" style="font-variation-settings:&quot;wght&quot;500;fill:#e98a54;fill-opacity:1;stroke:none;stroke-width:.370417;stroke-linejoin:bevel"/><circle cx="16.669" cy="7.938" r="1.323" style="font-variation-settings:&quot;wght&quot;500;fill:#fff;fill-opacity:1;stroke:none;stroke-width:.370416;stroke-linejoin:bevel"/><circle cx="16.669" cy="7.938" r="1.058" style="font-variation-settings:&quot;wght&quot;500;fill:#e98a54;fill-opacity:1;stroke:none;stroke-width:.370417;stroke-linejoin:bevel"/><g transform="translate(-.794 -.794)"><circle cx="10.319" cy="10.054" r="2.381" style="font-variation-settings:&quot;wght&quot;500;fill:#fff;fill-opacity:1;stroke:none;stroke-width:.370416;stroke-linejoin:bevel"/><circle cx="10.319" cy="10.054" r="2.117" style="font-variation-settings:&quot;wght&quot;500;fill:#e98a54;fill-opacity:1;stroke:none;stroke-width:.370418;stroke-linejoin:bevel"/></g></g><path d="M23.668 11.113q-.936 0-1.618-.411a2.73 2.73 0 0 1-1.046-1.15q-.366-.739-.366-1.715 0-.744.205-1.335a2.7 2.7 0 0 1 .603-1.008 2.6 2.6 0 0 1 .957-.636 3.5 3.5 0 0 1 1.265-.218q.462 0 .963.14.501.143.912.489a.41.41 0 0 1 .166.468.5.5 0 0 1-.128.206.37.37 0 0 1-.225.096.4.4 0 0 1-.276-.09 2.1 2.1 0 0 0-.68-.36 2.3 2.3 0 0 0-.668-.103q-.501 0-.873.161a1.7 1.7 0 0 0-.63.456q-.255.295-.391.732-.135.438-.135 1.015 0 1.118.527 1.766.526.65 1.503.65.32 0 .662-.104.339-.103.687-.36a.4.4 0 0 1 .27-.09.37.37 0 0 1 .218.097q.09.084.122.212a.46.46 0 0 1-.006.25.4.4 0 0 1-.166.212 2.6 2.6 0 0 1-.9.482 3.3 3.3 0 0 1-.95.148zM28.87 11.113q-.924 0-1.413-.566-.488-.564-.488-1.618v-6.55q0-.257.128-.392t.385-.135q.245 0 .385.135.142.134.141.392v6.473q0 .693.276 1.033t.816.34q.115 0 .205-.012t.18-.013q.14-.013.199.064t.058.309q0 .232-.104.346-.103.115-.334.155l-.218.026q-.116.012-.218.012zM33.365 11.113q-.913 0-1.58-.398a2.7 2.7 0 0 1-1.034-1.124q-.366-.726-.366-1.715 0-.744.206-1.342.204-.597.603-1.021.398-.424.944-.649t1.227-.225q.91 0 1.58.398.666.398 1.033 1.124t.366 1.714q0 .745-.205 1.336a2.9 2.9 0 0 1-.604 1.02q-.398.432-.943.655-.547.226-1.227.226zm0-.835q.578 0 1.014-.283.437-.282.675-.822.237-.54.237-1.298 0-1.17-.52-1.785t-1.406-.616q-.59 0-1.02.276t-.668.809q-.239.534-.238 1.316 0 1.156.527 1.78.525.622 1.4.622zM40.12 11.113q-.758 0-1.252-.276a1.74 1.74 0 0 1-.745-.829q-.25-.552-.251-1.374V5.192q0-.27.135-.398a.53.53 0 0 1 .379-.128q.255 0 .392.128.135.129.135.398V8.62q0 .823.34 1.228t1.072.404q.797 0 1.297-.54.501-.539.501-1.412V5.192q0-.27.135-.398t.392-.128c.172 0 .289.043.379.128q.135.129.135.398v5.355q0 .54-.501.54a.5.5 0 0 1-.38-.141q-.135-.142-.134-.399V9.378l.167.18q-.257.757-.842 1.156t-1.355.398zM47.492 11.113q-.834 0-1.457-.398a2.6 2.6 0 0 1-.963-1.124q-.34-.726-.34-1.715c0-.659.113-1.243.34-1.727q.34-.726.963-1.117.623-.393 1.457-.392c.556 0 1.049.14 1.452.423q.603.424.81 1.143h-.142V2.38q0-.257.135-.392t.392-.135q.244 0 .38.135.135.135.134.392v8.168q0 .256-.128.399-.129.14-.385.14c-.171 0-.289-.047-.379-.14q-.135-.142-.135-.399v-1.22l.141.18q-.206.731-.815 1.168-.61.437-1.458.437zm.219-.835q.577 0 1.015-.283.435-.282.674-.822.237-.54.237-1.298 0-1.17-.52-1.785t-1.405-.616q-.591 0-1.021.276t-.668.809q-.239.534-.238 1.316 0 1.156.527 1.78.525.622 1.4.622z" class="cls-3" style="fill:#008cb6;stroke-width:0;fill-opacity:1"/><path d="M53.118 3.253q-.321 0-.501-.174a.62.62 0 0 1-.18-.469c0-.198.06-.362.18-.47q.18-.16.5-.16c.215 0 .393.053.508.16q.173.161.173.47c0 .206-.057.353-.173.47q-.174.173-.507.173m0 7.809q-.257 0-.385-.148-.129-.147-.128-.418V5.243q0-.27.128-.41.128-.142.385-.142.243 0 .385.141.14.142.14.411v5.253q0 .27-.134.418-.135.148-.392.148zM57.484 11.113q-.924 0-1.413-.566-.488-.564-.488-1.618v-6.55q0-.257.128-.392t.385-.135q.245 0 .385.135.142.134.141.392v6.473q0 .693.276 1.033.275.34.816.34.115 0 .205-.012t.18-.013q.14-.013.199.064t.058.309q0 .232-.104.346-.102.115-.334.155l-.218.026q-.117.012-.218.012zM61.286 11.113q-.924 0-1.413-.566-.488-.564-.488-1.618v-6.55q0-.257.128-.392t.385-.135q.243 0 .385.135.142.134.141.392v6.473q0 .693.276 1.033.275.34.815.34.117 0 .206-.012.09-.013.18-.013.14-.013.199.064.057.077.057.309t-.103.346-.334.155l-.218.026q-.116.012-.219.012zM65.781 11.113q-.912 0-1.58-.398a2.7 2.7 0 0 1-1.033-1.124q-.366-.726-.366-1.715 0-.744.205-1.342.206-.597.603-1.021.398-.424.945-.649.545-.225 1.226-.225.912 0 1.58.398t1.033 1.124.367 1.714q-.001.745-.206 1.336a2.9 2.9 0 0 1-.603 1.02q-.398.432-.944.655-.546.226-1.226.226zm0-.835q.578 0 1.015-.283.437-.282.675-.822.237-.54.237-1.298 0-1.17-.52-1.785t-1.406-.616q-.592 0-1.02.276-.431.276-.669.809-.238.534-.238 1.316 0 1.156.527 1.78.525.622 1.4.622z" class="cls-1" style="fill:#e98a54;stroke-width:0"/></svg>