<svg xmlns="http://www.w3.org/2000/svg" width="72" height="59" viewBox="0 0 19.05 15.61"><g style="display:inline"><circle cx="3.44" cy="7.408" r="3.44" style="font-variation-settings:&quot;wght&quot;500;fill:#008cb6;fill-opacity:1;stroke:none;stroke-width:.370418;stroke-linejoin:bevel"/><circle cx="7.144" cy="3.704" r="3.704" style="font-variation-settings:&quot;wght&quot;500;fill:#008cb6;fill-opacity:1;stroke:none;stroke-width:.370418;stroke-linejoin:bevel"/><circle cx="16.14" cy="7.938" r="2.91" style="font-variation-settings:&quot;wght&quot;500;fill:#008cb6;fill-opacity:1;stroke:none;stroke-width:.370418;stroke-linejoin:bevel"/><circle cx="12.965" cy="4.762" r="2.91" style="font-variation-settings:&quot;wght&quot;500;fill:#008cb6;fill-opacity:1;stroke:none;stroke-width:.370418;stroke-linejoin:bevel"/><path d="M3.44 5.292h12.7v5.556H3.44z" style="font-variation-settings:&quot;wght&quot;500;fill:#008cb6;fill-opacity:1;stroke:none;stroke-width:.370417;stroke-linejoin:bevel"/><path d="m7.144 2.91 2.381 6.35M13.23 4.233 9.524 9.26M16.669 7.938 9.525 9.26" style="font-variation-settings:&quot;wght&quot;500;fill:#e98a54;fill-opacity:1;stroke:#fff;stroke-width:1;stroke-linejoin:bevel;stroke-dasharray:none;stroke-opacity:1"/><path d="m7.144 2.91 2.381 6.35M13.23 4.233 9.524 9.26M16.669 7.938 9.525 9.26" style="font-variation-settings:&quot;wght&quot;500;fill:none;fill-opacity:1;stroke:#e98a54;stroke-width:.5;stroke-linejoin:bevel;stroke-dasharray:none;stroke-opacity:1"/><path d="m3.175 7.408 6.35 1.852" style="font-variation-settings:&quot;wght&quot;500;fill:#e98a54;fill-opacity:1;stroke:#fff;stroke-width:1;stroke-linejoin:bevel;stroke-dasharray:none;stroke-opacity:1"/><path d="m3.175 7.408 6.35 1.852" style="font-variation-settings:&quot;wght&quot;500;fill:none;fill-opacity:1;stroke:#e98a54;stroke-width:.5;stroke-linejoin:bevel;stroke-dasharray:none;stroke-opacity:1"/><circle cx="3.175" cy="7.408" r="1.852" style="font-variation-settings:&quot;wght&quot;500;fill:#fff;fill-opacity:1;stroke:none;stroke-width:.370416;stroke-linejoin:bevel"/><circle cx="3.175" cy="7.408" r="1.587" style="font-variation-settings:&quot;wght&quot;500;fill:#e98a54;fill-opacity:1;stroke:none;stroke-width:.370417;stroke-linejoin:bevel"/><g transform="translate(.265)"><circle cx="6.879" cy="2.91" r="1.587" style="font-variation-settings:&quot;wght&quot;500;fill:#fff;fill-opacity:1;stroke:none;stroke-width:.370416;stroke-linejoin:bevel"/><circle cx="6.879" cy="2.91" r="1.323" style="font-variation-settings:&quot;wght&quot;500;fill:#e98a54;fill-opacity:1;stroke:none;stroke-width:.370417;stroke-linejoin:bevel"/></g><circle cx="13.229" cy="4.233" r="1.323" style="font-variation-settings:&quot;wght&quot;500;fill:#fff;fill-opacity:1;stroke:none;stroke-width:.370416;stroke-linejoin:bevel"/><circle cx="13.229" cy="4.233" r="1.058" style="font-variation-settings:&quot;wght&quot;500;fill:#e98a54;fill-opacity:1;stroke:none;stroke-width:.370417;stroke-linejoin:bevel"/><circle cx="16.669" cy="7.938" r="1.323" style="font-variation-settings:&quot;wght&quot;500;fill:#fff;fill-opacity:1;stroke:none;stroke-width:.370416;stroke-linejoin:bevel"/><circle cx="16.669" cy="7.938" r="1.058" style="font-variation-settings:&quot;wght&quot;500;fill:#e98a54;fill-opacity:1;stroke:none;stroke-width:.370417;stroke-linejoin:bevel"/><g transform="translate(-.794 -.794)"><circle cx="10.319" cy="10.054" r="2.381" style="font-variation-settings:&quot;wght&quot;500;fill:#fff;fill-opacity:1;stroke:none;stroke-width:.370416;stroke-linejoin:bevel"/><circle cx="10.319" cy="10.054" r="2.117" style="font-variation-settings:&quot;wght&quot;500;fill:#e98a54;fill-opacity:1;stroke:none;stroke-width:.370418;stroke-linejoin:bevel"/></g></g><path d="M1.2 15.599q-.371 0-.64-.163a1.1 1.1 0 0 1-.415-.455A1.5 1.5 0 0 1 0 14.302q0-.295.081-.529.081-.232.24-.399.156-.165.378-.251a1.411 1.411 0 0 1 .882-.03 1 1 0 0 1 .36.192.16.16 0 0 1 .067.186.2.2 0 0 1-.05.081.15.15 0 0 1-.09.038.16.16 0 0 1-.11-.036.8.8 0 0 0-.269-.142.93.93 0 0 0-.61.023.7.7 0 0 0-.249.18.8.8 0 0 0-.155.29 1.4 1.4 0 0 0-.053.402q0 .442.208.7.209.256.595.256a.904.904 0 0 0 .534-.183.16.16 0 0 1 .107-.036.15.15 0 0 1 .087.038q.035.033.048.085a.2.2 0 0 1-.002.098.16.16 0 0 1-.066.085 1 1 0 0 1-.356.19 1.3 1.3 0 0 1-.376.059zM3.259 15.599q-.365 0-.56-.224-.193-.225-.193-.64V12.14q0-.101.051-.155t.153-.053a.2.2 0 0 1 .152.053q.056.054.056.155v2.563q0 .274.109.409t.323.134q.045 0 .081-.005a1 1 0 0 1 .071-.005q.057-.005.08.026.021.03.022.122t-.04.137-.133.061l-.087.01a1 1 0 0 1-.086.006zM5.038 15.599q-.36 0-.625-.158a1.06 1.06 0 0 1-.41-.445 1.5 1.5 0 0 1-.144-.679q0-.294.081-.531.081-.236.239-.404t.374-.257q.216-.09.485-.09.361 0 .625.158.265.159.41.445t.145.68q0 .294-.082.528-.081.233-.239.404-.158.17-.373.26-.216.088-.486.088zm0-.33a.72.72 0 0 0 .402-.113.7.7 0 0 0 .267-.325 1.3 1.3 0 0 0 .094-.514q0-.462-.206-.706a.69.69 0 0 0-.557-.244.73.73 0 0 0-.404.109.7.7 0 0 0-.264.32q-.094.211-.094.521 0 .458.208.704a.69.69 0 0 0 .554.247zM7.712 15.599q-.3 0-.495-.11a.7.7 0 0 1-.295-.328 1.3 1.3 0 0 1-.1-.544v-1.362q0-.107.054-.158a.2.2 0 0 1 .15-.05q.102 0 .155.05t.053.158v1.357q0 .325.135.486.134.16.425.16.315 0 .513-.214.198-.213.198-.559v-1.23q0-.107.054-.158.053-.05.155-.05c.068 0 .114.016.15.05q.053.051.053.158v2.12q0 .213-.198.213a.2.2 0 0 1-.15-.055.22.22 0 0 1-.053-.158v-.463l.065.071a.87.87 0 0 1-.333.458.93.93 0 0 1-.536.157zM10.63 15.599q-.33 0-.576-.158a1.04 1.04 0 0 1-.382-.445 1.6 1.6 0 0 1-.134-.679c0-.26.045-.492.134-.683q.136-.288.382-.443a1.06 1.06 0 0 1 .577-.155c.22 0 .415.056.574.168a.8.8 0 0 1 .32.452h-.055v-1.515q0-.101.053-.155.054-.054.156-.053.096 0 .15.053.053.054.053.155v3.234q0 .1-.05.158-.052.055-.153.055c-.068 0-.114-.018-.15-.055a.22.22 0 0 1-.054-.158v-.483l.056.07a.83.83 0 0 1-.323.463.97.97 0 0 1-.577.173zm.087-.33a.72.72 0 0 0 .402-.113.7.7 0 0 0 .267-.325 1.3 1.3 0 0 0 .094-.514q0-.462-.206-.706a.69.69 0 0 0-.556-.244.73.73 0 0 0-.405.109.7.7 0 0 0-.264.32q-.094.211-.094.521 0 .458.208.704a.69.69 0 0 0 .555.247z" class="cls-3" style="fill:#008cb6;stroke-width:0;fill-opacity:1"/><path d="M12.858 12.487a.27.27 0 0 1-.199-.069.25.25 0 0 1-.07-.185c0-.078.023-.143.07-.186a.3.3 0 0 1 .199-.064c.084 0 .155.021.2.064q.069.064.069.186 0 .12-.069.185-.069.07-.2.07m0 3.091q-.103 0-.153-.058a.24.24 0 0 1-.05-.165v-2.08q0-.106.05-.163.051-.055.153-.055.096 0 .152.055.056.057.056.163v2.08a.24.24 0 0 1-.054.165q-.053.059-.155.058zM14.586 15.599q-.366 0-.56-.224-.192-.225-.192-.64V12.14q0-.101.05-.155t.153-.053a.2.2 0 0 1 .152.053q.056.054.056.155v2.563q0 .274.11.409.108.135.322.134.045 0 .081-.005a1 1 0 0 1 .071-.005q.056-.005.08.026.022.03.022.122t-.04.137-.133.061l-.087.01a1 1 0 0 1-.086.006zM16.091 15.599q-.365 0-.56-.224-.192-.225-.192-.64V12.14q0-.101.05-.155t.153-.053a.2.2 0 0 1 .152.053q.056.054.056.155v2.563q0 .274.11.409.108.135.322.134.045 0 .081-.005a1 1 0 0 1 .071-.005q.056-.005.08.026.022.03.022.122t-.04.137-.133.061l-.087.01a1 1 0 0 1-.086.006zM17.87 15.599q-.36 0-.625-.158a1.06 1.06 0 0 1-.409-.445 1.5 1.5 0 0 1-.145-.679q0-.294.081-.531.082-.236.24-.404.156-.168.373-.257.216-.09.486-.09.36 0 .625.158.264.159.41.445.144.287.144.68 0 .294-.081.528-.081.233-.24.404-.156.17-.373.26-.215.088-.485.088zm0-.33a.72.72 0 0 0 .402-.113.7.7 0 0 0 .267-.325 1.3 1.3 0 0 0 .094-.514q0-.462-.206-.706a.69.69 0 0 0-.556-.244.73.73 0 0 0-.404.109.7.7 0 0 0-.265.32q-.094.211-.094.521 0 .458.209.704a.69.69 0 0 0 .554.247z" class="cls-1" style="fill:#e98a54;stroke-width:0"/></svg>